<?xml version="1.0" encoding="iso-8859-1"?>
<!-- Generator: Adobe Illustrator 18.1.1, SVG Export Plug-In . SVG Version: 6.00 Build 0)  -->
<svg version="1.1" id="Capa_1" xmlns="http://www.w3.org/2000/svg" xmlns:xlink="http://www.w3.org/1999/xlink" x="0px" y="0px"
	 viewBox="0 0 28 28" style="enable-background:new 0 0 28 28;" xml:space="preserve">
<g>
	<path style="fill:#010002;" d="M22.031,8V6c0,0,0-6-6-6H5.969v28H16.06c5.971,0,5.971-6,5.971-6v-2c0-6-6-6-6-6S22.031,14,22.031,8
		z M14.031,22h-2v-4h2c0,0,2,0,2,2S14.031,22,14.031,22z M14.031,10h-2V6h2c0,0,2,0,2,2S14.031,10,14.031,10z"/>
</g>
<g>
</g>
<g>
</g>
<g>
</g>
<g>
</g>
<g>
</g>
<g>
</g>
<g>
</g>
<g>
</g>
<g>
</g>
<g>
</g>
<g>
</g>
<g>
</g>
<g>
</g>
<g>
</g>
<g>
</g>
</svg>
